<svg width="64" height="64" viewBox="0 0 64 64" fill="none" xmlns="http://www.w3.org/2000/svg">
<circle cx="32" cy="32" r="32" fill="#E5E8ED"/>
<rect x="13.0909" y="14.5454" width="37.8182" height="36.3636" rx="7" fill="#001E36"/>
<path d="M20.6744 40V25.4545H26.413C27.5162 25.4545 28.4561 25.6652 29.2326 26.0866C30.0091 26.5033 30.601 27.0833 31.0082 27.8267C31.4201 28.5653 31.6261 29.4176 31.6261 30.3835C31.6261 31.3494 31.4177 32.2017 31.0011 32.9403C30.5844 33.679 29.9807 34.2543 29.19 34.6662C28.404 35.0781 27.4523 35.2841 26.3349 35.2841H22.6772V32.8196H25.8377C26.4296 32.8196 26.9173 32.7178 27.3008 32.5142C27.689 32.3059 27.9779 32.0194 28.1673 31.6548C28.3614 31.2855 28.4585 30.8617 28.4585 30.3835C28.4585 29.9006 28.3614 29.4792 28.1673 29.1193C27.9779 28.7547 27.689 28.473 27.3008 28.2741C26.9125 28.0705 26.4201 27.9688 25.8235 27.9688H23.7496V40H20.6744ZM42.6435 32.2017L39.8736 32.3722C39.8262 32.1354 39.7244 31.9223 39.5682 31.733C39.4119 31.5388 39.206 31.3849 38.9503 31.2713C38.6993 31.1529 38.3987 31.0938 38.0483 31.0938C37.5795 31.0938 37.1842 31.1932 36.8622 31.392C36.5402 31.5862 36.3793 31.8466 36.3793 32.1733C36.3793 32.4337 36.4834 32.6539 36.6918 32.8338C36.9001 33.0137 37.2576 33.1581 37.7642 33.267L39.7386 33.6648C40.7992 33.8826 41.59 34.233 42.1108 34.7159C42.6316 35.1989 42.892 35.8333 42.892 36.6193C42.892 37.3343 42.6813 37.9616 42.2599 38.5014C41.8433 39.0412 41.2704 39.4626 40.5412 39.7656C39.8168 40.0639 38.9811 40.2131 38.0341 40.2131C36.59 40.2131 35.4394 39.9124 34.5824 39.3111C33.7301 38.705 33.2306 37.8812 33.0838 36.8395L36.0597 36.6832C36.1496 37.1236 36.3674 37.4598 36.7131 37.6918C37.0587 37.919 37.5014 38.0327 38.0412 38.0327C38.5715 38.0327 38.9976 37.9309 39.3196 37.7273C39.6463 37.5189 39.812 37.2514 39.8168 36.9247C39.812 36.6501 39.696 36.4252 39.4688 36.25C39.2415 36.0701 38.8911 35.9328 38.4176 35.8381L36.5284 35.4616C35.4631 35.2486 34.67 34.8793 34.1491 34.3537C33.633 33.8281 33.375 33.1581 33.375 32.3438C33.375 31.643 33.5644 31.0393 33.9432 30.5327C34.3267 30.026 34.8641 29.6354 35.5554 29.3608C36.2514 29.0862 37.0658 28.9489 37.9986 28.9489C39.3764 28.9489 40.4607 29.2401 41.2514 29.8224C42.0469 30.4048 42.5109 31.1979 42.6435 32.2017Z" fill="#31A8FF"/>
</svg>
